<?xml version="1.0" encoding="utf-8"?>
<!-- Generator: Adobe Illustrator 23.0.1, SVG Export Plug-In . SVG Version: 6.00 Build 0)  -->
<svg version="1.1" id="Layer_1" xmlns="http://www.w3.org/2000/svg" xmlns:xlink="http://www.w3.org/1999/xlink" x="0px" y="0px"
	 viewBox="0 0 1000 1000" style="enable-background:new 0 0 1000 1000;" xml:space="preserve">
<style type="text/css">
	.st0{fill:#FFFFFF;}
</style>
<g>
	<path class="st0" d="M944.1,928.8H55.9c-25.4,0-45.9-20.6-45.9-45.9V117.2c0-25.4,20.6-45.9,45.9-45.9H944
		c25.4,0,45.9,20.6,45.9,45.9v765.6C990,908.2,969.4,928.8,944.1,928.8z M101.9,117.2c-25.4,0-45.9,20.6-45.9,45.9
		c0,25.4,20.6,45.9,45.9,45.9s45.9-20.6,45.9-45.9S127.2,117.2,101.9,117.2z M239.7,117.2c-25.4,0-45.9,20.6-45.9,45.9
		c0,25.4,20.6,45.9,45.9,45.9c25.4,0,45.9-20.6,45.9-45.9C285.6,137.8,265.1,117.2,239.7,117.2z M377.5,117.2
		c-25.4,0-45.9,20.6-45.9,45.9c0,25.4,20.6,45.9,45.9,45.9c25.4,0,45.9-20.6,45.9-45.9S402.9,117.2,377.5,117.2z M944.1,255h-45.9
		H101.9h-46v627.8H944L944.1,255L944.1,255z M217.5,495.1c3.2,9.9,7.5,19.5,13.1,28.5L214.7,542c-5.2,6-4.6,14.5,1.2,19.9l27.2,25
		c5.9,5.4,15.2,5.9,21.7,1.1l19.8-14.4c10.2,5.4,21,9.6,32.3,12.6l3,23.4c1,7.6,7.9,13.3,16.2,13.3h38.5c8.3,0,15.2-5.7,16.2-13.3
		l2.8-22.6c12.1-2.9,23.7-7.2,34.6-12.9l19.1,13.9c6.5,4.7,15.8,4.2,21.7-1.1l27.2-25c5.9-5.4,6.4-13.9,1.2-19.9l-14.9-17.4
		c6.2-9.8,11-20.3,14.2-31.3l23-2.4c8.3-0.9,14.4-7.3,14.4-14.9v-35.4c0-7.6-6.2-14-14.4-14.9l-22.6-2.4
		c-3.1-10.8-7.7-21.2-13.7-30.9l13.9-16.2c5.2-6,4.6-14.5-1.2-19.9L469,331.6c-5.9-5.4-15.2-5.9-21.7-1.1l-17.1,12.4
		c-11.1-6-23-10.5-35.4-13.6l-2.6-20.3c-1-7.6-7.9-13.3-16.2-13.3h-38.5c-8.3,0-15.2,5.7-16.2,13.3l-2.6,20.3
		c-12.8,3.1-25,7.9-36.3,14.1l-17.7-12.9c-6.5-4.7-15.8-4.2-21.7,1.1l-27.2,25c-5.9,5.4-6.4,13.9-1.2,19.9l14.8,17.2
		c-5.9,9.8-10.4,20.3-13.4,31.2l-23.7,2.5c-8.3,0.9-14.4,7.3-14.4,14.9v35.4c0,7.6,6.2,14,14.4,14.9L217.5,495.1z M356.9,399.5
		c35.1,0,63.6,26.2,63.6,58.5s-28.6,58.5-63.6,58.5c-35.1,0-63.6-26.2-63.6-58.5S321.8,399.5,356.9,399.5z M737.4,503.8l-20.3-15.8
		c-6.3-4.9-15.5-4.6-21.4,0.5l-11.2,9.7c-9.5-4.2-19.5-7.2-29.9-8.9l-3.2-14.2c-1.6-7.3-9-12.4-17.2-11.8l-26.5,2.1
		c-8.1,0.7-14.5,6.8-14.8,14.3l-0.5,14.5c-10.2,3.4-19.8,8-28.6,13.8l-13.4-8.2c-6.8-4.1-15.9-3-21.2,2.8l-17.1,18.8
		c-5.3,5.7-5,14.2,0.6,19.7l11.7,11.5c-4.1,8.4-7,17.2-8.6,26.3l-16.8,3.1c-8,1.5-13.5,8.3-12.9,15.8l2.3,24.3
		c0.7,7.5,7.3,13.3,15.5,13.6l18.1,0.5c3.3,7.9,7.6,15.5,12.8,22.5l-10.1,14c-4.5,6.3-3.2,14.6,3,19.5l20.3,15.8
		c6.3,4.9,15.5,4.6,21.4-0.5l13.3-11.4c8.7,3.7,17.9,6.5,27.3,8.2l3.7,16.7c1.6,7.3,9,12.4,17.1,11.8l26.5-2.1
		c8.1-0.7,14.5-6.8,14.8-14.3l0.6-16.3c9.7-3.1,18.8-7.4,27.3-12.7l14.6,8.9c6.8,4.1,15.9,3,21.2-2.8l17.1-18.7
		c5.3-5.7,5-14.2-0.6-19.7l-11.8-11.5c4.3-8.4,7.5-17.3,9.3-26.4l16.1-3c8-1.5,13.5-8.3,12.9-15.8l-2.3-24.3
		c-0.7-7.5-7.3-13.3-15.5-13.6L745,560c-3.4-8.6-7.9-16.8-13.5-24.4l8.8-12.2C745,517.1,743.7,508.7,737.4,503.8z M637.6,644.6
		c-28.6,2.3-53.9-17.4-56.3-43.6c-2.5-26.3,18.9-49.5,47.5-51.7c28.6-2.3,53.9,17.4,56.3,43.6C687.5,619.1,666.2,642.4,637.6,644.6z
		 M310.2,710.1c-8.1,0.8-14.4,7-14.4,14.6l-0.2,15c-0.1,7.5,5.9,13.9,14.1,14.9l12,1.4c2,6.7,4.8,13.1,8.5,19.1l-7.7,8.8
		c-5.2,5.9-4.8,14.3,1,19.7l11.4,10.7c5.7,5.4,14.9,6,21.4,1.4l9.6-6.8c6.8,3.7,13.9,6.6,21.4,8.6l1.3,11.4
		c0.8,7.5,7.7,13.2,15.9,13.3l16.3,0.2c8.2,0.1,15.2-5.4,16.2-12.9l1.5-10.8c8.1-1.8,15.9-4.6,23.2-8.3l9,6.7
		c6.4,4.7,15.5,4.4,21.4-0.9l11.7-10.5c5.9-5.3,6.5-13.7,1.5-19.7l-6.9-8.2c4.3-6.5,7.5-13.4,9.8-20.7l10.7-1
		c8.1-0.8,14.4-7,14.4-14.6l0.2-15c0.1-7.5-5.9-13.9-14.1-14.9l-10.4-1.2c-2-7.2-5-14.2-8.8-20.7l6.5-7.3c5.2-5.9,4.8-14.3-1-19.7
		l-11.4-10.7c-5.7-5.4-14.9-6-21.4-1.4l-7.8,5.5c-7.3-4.1-15.2-7.2-23.5-9.4l-1-9.3c-0.8-7.5-7.7-13.2-15.9-13.3l-16.3-0.2
		c-8.2-0.1-15.2,5.4-16.2,12.9l-1.3,9.2c-8.5,2-16.7,5.1-24.3,9.1l-8.1-6c-6.4-4.7-15.5-4.4-21.4,0.9l-11.7,10.5
		c-5.9,5.3-6.5,13.7-1.5,19.7l6.9,8.2c-4,6.5-7.2,13.4-9.2,20.7L310.2,710.1z M415.5,693.1c23.4,0.2,42.2,17.9,41.9,39.4
		c-0.3,21.5-19.5,38.7-42.9,38.5c-23.4-0.2-42.2-17.9-41.9-39.4C372.8,710.1,392,692.9,415.5,693.1z"/>
</g>
</svg>
